<?xml version="1.0" encoding="UTF-8" standalone="no"?>
<svg xmlns="http://www.w3.org/2000/svg" width="738" height="168">
 <defs>
    <style type="text/css">
       @namespace "http://www.w3.org/2000/svg";
       .line                 {fill: none; stroke: #332900;}
       .bold-line            {stroke: #141000; shape-rendering: crispEdges; stroke-width:
       2; }
       .thin-line            {stroke: #1F1800; shape-rendering: crispEdges}
       .filled               {fill: #332900; stroke: none;}
       text.terminal         {font-family: Verdana, Sans-serif;
       font-size: 12px;
       fill: #141000;
       font-weight: bold;
       }
       text.nonterminal      {font-family: Verdana, Sans-serif;
       font-size: 12px;
       fill: #1A1400;
       }
       text.regexp           {font-family: Verdana, Sans-serif;
       font-size: 12px;
       fill: #1F1800;
       }
       rect, circle, polygon {fill: #332900; stroke: #332900;}
       rect.terminal         {fill: #FFDB4D; stroke: #332900;}
       rect.nonterminal      {fill: #FFEC9E; stroke: #332900;}
       rect.text             {fill: none; stroke: none;}    
       polygon.regexp        {fill: #FFF4C7; stroke: #332900;}
       
    </style>
 </defs>
 <polygon points="9 17 1 13 1 21"/>
 <polygon points="17 17 9 13 9 21"/>
 <rect x="51" y="3" width="76" height="32" rx="10"/>
 <rect x="49" y="1" width="76" height="32" class="terminal" rx="10"/>
 <text class="terminal" x="59" y="21">when[C]</text>
 <rect x="51" y="47" width="136" height="32" rx="10"/>
 <rect x="49" y="45" width="136" height="32" class="terminal" rx="10"/>
 <text class="terminal" x="59" y="65">when[Cmd](c: C)</text>
 <rect x="247" y="35" width="180" height="32" rx="10"/>
 <rect x="245" y="33" width="180" height="32" class="terminal" rx="10"/>
 <text class="terminal" x="255" y="53">guard(c: C, msg: String)</text>
 <rect x="487" y="3" width="68" height="32" rx="10"/>
 <rect x="485" y="1" width="68" height="32" class="terminal" rx="10"/>
 <text class="terminal" x="495" y="21">emit[E]</text>
 <rect x="487" y="47" width="144" height="32" rx="10"/>
 <rect x="485" y="45" width="144" height="32" class="terminal" rx="10"/>
 <text class="terminal" x="495" y="65">emit[Evt](evs: E*)</text>
 <rect x="487" y="91" width="182" height="32" rx="10"/>
 <rect x="485" y="89" width="182" height="32" class="terminal" rx="10"/>
 <text class="terminal" x="495" y="109">emitEvent[E](h: C =&gt; E)</text>
 <rect x="487" y="135" width="204" height="32" rx="10"/>
 <rect x="485" y="133" width="204" height="32" class="terminal" rx="10"/>
 <text class="terminal" x="495" y="153">emitEvents(h: C =&gt; List[E])</text>
 <svg:path xmlns:svg="http://www.w3.org/2000/svg" class="line" d="m17 17 h2 m20 0 h10 m76 0 h10 m0 0 h60 m-176 0 h20 m156 0 h20 m-196 0 q10 0 10 10 m176 0 q0 -10 10 -10 m-186 10 v24 m176 0 v-24 m-176 24 q0 10 10 10 m156 0 q10 0 10 -10 m-166 10 h10 m136 0 h10 m40 -44 h10 m0 0 h190 m-220 0 h20 m200 0 h20 m-240 0 q10 0 10 10 m220 0 q0 -10 10 -10 m-230 10 v12 m220 0 v-12 m-220 12 q0 10 10 10 m200 0 q10 0 10 -10 m-210 10 h10 m180 0 h10 m40 -32 h10 m68 0 h10 m0 0 h136 m-244 0 h20 m224 0 h20 m-264 0 q10 0 10 10 m244 0 q0 -10 10 -10 m-254 10 v24 m244 0 v-24 m-244 24 q0 10 10 10 m224 0 q10 0 10 -10 m-234 10 h10 m144 0 h10 m0 0 h60 m-234 -10 v20 m244 0 v-20 m-244 20 v24 m244 0 v-24 m-244 24 q0 10 10 10 m224 0 q10 0 10 -10 m-234 10 h10 m182 0 h10 m0 0 h22 m-234 -10 v20 m244 0 v-20 m-244 20 v24 m244 0 v-24 m-244 24 q0 10 10 10 m224 0 q10 0 10 -10 m-234 10 h10 m204 0 h10 m23 -132 h-3"/>
 <polygon points="729 17 737 13 737 21"/>
 <polygon points="729 17 721 13 721 21"/>
</svg>
