<?xml version="1.0" encoding="UTF-8" standalone="no"?>
      <svg xmlns="http://www.w3.org/2000/svg" width="390" height="96">
         <defs>
            <style type="text/css">
               @namespace "http://www.w3.org/2000/svg";
               .line                 {fill: none; stroke: #332900;}
               .bold-line            {stroke: #141000; shape-rendering: crispEdges; stroke-width:
               2; }
               .thin-line            {stroke: #1F1800; shape-rendering: crispEdges}
               .filled               {fill: #332900; stroke: none;}
               text.terminal         {font-family: Verdana, Sans-serif;
               font-size: 12px;
               fill: #141000;
               font-weight: bold;
               }
               text.nonterminal      {font-family: Verdana, Sans-serif;
               font-size: 12px;
               fill: #1A1400;
               }
               text.regexp           {font-family: Verdana, Sans-serif;
               font-size: 12px;
               fill: #1F1800;
               }
               rect, circle, polygon {fill: #332900; stroke: #332900;}
               rect.terminal         {fill: #FFDB4D; stroke: #332900;}
               rect.nonterminal      {fill: #FFEC9E; stroke: #332900;}
               rect.text             {fill: none; stroke: none;}    
               polygon.regexp        {fill: #FFF4C7; stroke: #332900;}
               
            </style>
         </defs>
         <polygon points="9 33 1 29 1 37"/>
         <polygon points="17 33 9 29 9 37"/>
            <rect x="71" y="19" width="128" height="32"/>
            <rect x="69" y="17" width="128" height="32" class="nonterminal"/>
            <text class="nonterminal" x="79" y="37">commandHandler</text>
            <rect x="71" y="63" width="106" height="32"/>
            <rect x="69" y="61" width="106" height="32" class="nonterminal"/>
            <text class="nonterminal" x="79" y="81">eventListener</text>
            <rect x="239" y="19" width="104" height="32"/>
            <rect x="237" y="17" width="104" height="32" class="nonterminal"/>
            <text class="nonterminal" x="247" y="37">eventHandler</text>
         <svg:path xmlns:svg="http://www.w3.org/2000/svg" class="line" d="m17 33 h2 m40 0 h10 m128 0 h10 m-168 0 h20 m148 0 h20 m-188 0 q10 0 10 10 m168 0 q0 -10 10 -10 m-178 10 v24 m168 0 v-24 m-168 24 q0 10 10 10 m148 0 q10 0 10 -10 m-158 10 h10 m106 0 h10 m0 0 h22 m20 -44 h10 m104 0 h10 m-332 0 l20 0 m-1 0 q-9 0 -9 -10 l0 -12 q0 -10 10 -10 m312 32 l20 0 m-20 0 q10 0 10 -10 l0 -12 q0 -10 -10 -10 m-312 0 h10 m0 0 h302 m23 32 h-3"/>
         <polygon points="381 33 389 29 389 37"/>
         <polygon points="381 33 373 29 373 37"/>
      </svg>
